<?xml version="1.0" encoding="utf-8"?>
<!-- Generator: Adobe Illustrator 24.0.3, SVG Export Plug-In . SVG Version: 6.00 Build 0)  -->
<svg version="1.1" id="Layer_1" xmlns="http://www.w3.org/2000/svg" xmlns:xlink="http://www.w3.org/1999/xlink" x="0px" y="0px"
	 viewBox="0 0 36.85 36.85" style="enable-background:new 0 0 36.85 36.85;" xml:space="preserve">
<style type="text/css">
	.st0{fill:#404040;}
</style>
<path class="st0" d="M36.85,35.4l-9.59-9.59c2.4-2.74,3.87-6.32,3.87-10.24C31.13,6.98,24.15,0,15.57,0C6.98,0,0,6.98,0,15.57
	c0,8.58,6.98,15.57,15.57,15.57c3.92,0,7.5-1.47,10.24-3.87l9.59,9.59L36.85,35.4z M15.57,29.08c-7.45,0-13.51-6.06-13.51-13.51
	S8.11,2.05,15.57,2.05c7.45,0,13.51,6.06,13.51,13.51S23.02,29.08,15.57,29.08z"/>
<g>
</g>
<g>
</g>
<g>
</g>
<g>
</g>
<g>
</g>
<g>
</g>
</svg>
