<?xml version="1.0" encoding="utf-8"?>
<!-- Generator: Adobe Illustrator 24.1.1, SVG Export Plug-In . SVG Version: 6.00 Build 0)  -->
<svg version="1.1" id="Layer_1" xmlns="http://www.w3.org/2000/svg" xmlns:xlink="http://www.w3.org/1999/xlink" x="0px" y="0px"
	 viewBox="0 0 444 49" style="enable-background:new 0 0 444 49;" xml:space="preserve">
<style type="text/css">
	.st0{fill:#231F20;}
</style>
<g>
	<path class="st0" d="M29.8,19.8c-1.4-1.5-3.1-2.7-5-3.6s-4-1.3-6.2-1.3c-3.9,0-7.1,1.2-9.5,3.5L9,0.8l-8.9,0l0,46.9l7.6,0L9,44.9
		c1,1,2.3,1.9,4.1,2.5c1.7,0.7,3.5,1,5.4,1c2.2,0,4.3-0.4,6.2-1.3c1.9-0.9,3.6-2.1,5-3.6c1.4-1.5,2.5-3.3,3.3-5.3
		c0.8-2,1.2-4.2,1.2-6.5c0-2.3-0.4-4.5-1.2-6.5C32.3,23.1,31.2,21.3,29.8,19.8z M25,35.1c-0.4,1.1-1,2-1.8,2.8
		c-0.8,0.8-1.7,1.4-2.7,1.9c-1,0.5-2.1,0.7-3.2,0.7c-1.2,0-2.2-0.2-3.2-0.5c-1-0.4-1.9-0.9-2.6-1.6s-1.3-1.6-1.8-2.7
		C9.2,34.6,9,33.3,9,31.8c0-1.7,0.2-3.1,0.6-4.2c0.4-1.1,1-2.1,1.8-2.8c0.7-0.7,1.6-1.2,2.6-1.5c1-0.3,2.1-0.5,3.2-0.5
		c1.2,0,2.2,0.2,3.2,0.7c1,0.5,1.9,1.1,2.7,1.9c0.8,0.8,1.4,1.7,1.8,2.8c0.4,1.1,0.6,2.2,0.6,3.4C25.6,32.9,25.4,34.1,25,35.1z"/>
	<path class="st0" d="M52.9,15.4c-1,0.3-1.9,0.7-2.6,1.2c-0.8,0.5-1.4,1-2,1.7c-0.6,0.6-1,1.3-1.5,2l-0.8-4.4l-8,0l0,31.9l8.9,0
		l0-16.9c0-1.1,0.3-2.2,0.8-3.1c0.5-1,1.2-1.8,2.1-2.5c0.9-0.7,1.9-1.2,3.1-1.6c1.2-0.4,2.5-0.6,3.8-0.6c0.4,0,0.8,0,1.3,0.1
		c0.5,0.1,0.9,0.1,1.3,0.2c0.5,0.1,0.9,0.2,1.4,0.3l0.8-7.9c-1.9-0.5-3.6-0.8-5.1-0.8C55,15,53.9,15.1,52.9,15.4z"/>
	<path class="st0" d="M90.2,15.8l-0.9,3.1c-1.1-1.4-2.5-2.4-4.2-3.1c-1.7-0.6-3.6-1-5.7-1c-2.3,0-4.4,0.4-6.3,1.3
		c-1.9,0.9-3.6,2.1-5,3.6c-1.4,1.5-2.5,3.3-3.3,5.3c-0.8,2-1.2,4.2-1.2,6.5c0,2.3,0.4,4.5,1.2,6.5c0.8,2,1.9,3.8,3.3,5.3
		c1.4,1.5,3.1,2.7,5,3.6c1.9,0.9,4,1.3,6.3,1.3c1.9,0,3.7-0.3,5.4-0.8c1.7-0.6,3.2-1.7,4.5-3.3l0.9,3.4l7.6,0l0-31.9L90.2,15.8z
		 M86.5,38.4c-1.6,1.4-3.6,2.2-5.9,2.2c-1.2,0-2.2-0.2-3.2-0.7c-1-0.5-1.9-1.1-2.7-1.9c-0.8-0.8-1.4-1.7-1.8-2.8
		c-0.4-1.1-0.6-2.2-0.6-3.5c0-1.2,0.2-2.3,0.6-3.4c0.4-1.1,1-2,1.8-2.8c0.8-0.8,1.7-1.4,2.7-1.9c1-0.5,2.1-0.7,3.2-0.7
		c1.2,0,2.2,0.2,3.2,0.5s1.9,0.8,2.6,1.5s1.3,1.6,1.8,2.8c0.5,1.1,0.7,2.5,0.7,4.2C89,34.8,88.1,36.9,86.5,38.4z"/>
	<path class="st0" d="M131.5,22.2c-0.9-1.7-2-3-3.2-3.9c-1.3-0.9-2.6-1.6-4.1-1.9c-1.5-0.3-2.8-0.5-4-0.5c-1.5,0-2.9,0.2-4.2,0.7
		c-1.3,0.5-2.4,1-3.5,1.8l-1.3-2.4l-7.6,0l0,31.9l8.9,0l0-18.7c0-0.9,0.2-1.7,0.6-2.4c0.4-0.7,0.9-1.2,1.4-1.7
		c0.6-0.4,1.2-0.7,1.9-0.9c0.7-0.2,1.3-0.3,1.8-0.3c0.7,0,1.4,0.1,2.1,0.3c0.7,0.2,1.3,0.5,1.8,0.9c0.5,0.4,1,1,1.3,1.6
		c0.3,0.7,0.5,1.5,0.5,2.5l0,18.7l8.9,0l0-19C132.8,26,132.3,23.8,131.5,22.2z"/>
	<path class="st0" d="M161.6,0.8l0,17.2c-1.2-1.1-2.6-1.9-4.1-2.4s-3.4-0.7-5.4-0.7c-2.3,0-4.4,0.4-6.3,1.3s-3.6,2.1-5,3.6
		c-1.4,1.5-2.5,3.3-3.3,5.3c-0.8,2-1.2,4.2-1.2,6.5c0,2.3,0.4,4.5,1.2,6.5c0.8,2,1.9,3.8,3.3,5.3c1.4,1.5,3.1,2.7,5,3.6
		c1.9,0.9,4,1.3,6.3,1.3c1.9,0,3.7-0.3,5.4-1s3.1-1.5,4.1-2.5l1.3,2.8l7.6,0l0-46.9L161.6,0.8z M159.2,38.4
		c-1.6,1.4-3.6,2.2-5.9,2.2c-1.2,0-2.2-0.2-3.2-0.7c-1-0.5-1.9-1.1-2.6-1.9c-0.8-0.8-1.3-1.7-1.8-2.8c-0.4-1.1-0.6-2.2-0.6-3.5
		c0-1.2,0.2-2.3,0.6-3.4c0.4-1.1,1-2,1.8-2.8c0.7-0.8,1.6-1.4,2.6-1.9c1-0.5,2.1-0.7,3.2-0.7c1.2,0,2.2,0.2,3.2,0.5
		c1,0.3,1.9,0.8,2.7,1.5s1.4,1.6,1.8,2.8c0.4,1.1,0.6,2.5,0.6,4.2C161.6,34.7,160.8,36.9,159.2,38.4z"/>
	<path class="st0" d="M213.5,15.8l-0.9,3.1c-1.1-1.4-2.5-2.4-4.2-3.1c-1.7-0.6-3.6-1-5.7-1c-2.3,0-4.4,0.4-6.3,1.3
		c-1.9,0.9-3.6,2.1-5,3.6c-1.4,1.5-2.5,3.3-3.3,5.3c-0.8,2-1.2,4.2-1.2,6.5c0,2.3,0.4,4.5,1.2,6.5c0.8,2,1.9,3.8,3.3,5.3
		c1.4,1.5,3.1,2.7,5,3.6c1.9,0.9,4,1.3,6.3,1.3c1.9,0,3.7-0.3,5.4-0.8c1.7-0.6,3.2-1.7,4.5-3.3l0.9,3.4l7.6,0l0-31.9L213.5,15.8z
		 M209.8,38.4c-1.6,1.4-3.6,2.2-5.9,2.2c-1.2,0-2.2-0.2-3.2-0.7c-1-0.5-1.9-1.1-2.7-1.9s-1.4-1.7-1.8-2.8c-0.4-1.1-0.6-2.2-0.6-3.5
		c0-1.2,0.2-2.3,0.6-3.4c0.4-1.1,1-2,1.8-2.8c0.8-0.8,1.7-1.4,2.7-1.9c1-0.5,2.1-0.7,3.2-0.7c1.2,0,2.2,0.2,3.2,0.5
		c1,0.3,1.9,0.8,2.6,1.5s1.3,1.6,1.8,2.8s0.7,2.5,0.7,4.2C212.2,34.7,211.4,36.9,209.8,38.4z"/>
	<path class="st0" d="M250.1,0.7l0,17.2c-1.2-1.1-2.6-1.9-4.1-2.4c-1.6-0.5-3.4-0.7-5.4-0.7c-2.3,0-4.4,0.4-6.3,1.3
		c-1.9,0.9-3.6,2.1-5,3.6c-1.4,1.5-2.5,3.3-3.3,5.3c-0.8,2-1.2,4.2-1.2,6.5c0,2.3,0.4,4.5,1.2,6.5c0.8,2,1.9,3.8,3.3,5.3
		c1.4,1.5,3.1,2.7,5,3.6c1.9,0.9,4,1.3,6.3,1.3c1.9,0,3.7-0.3,5.4-1c1.7-0.7,3.1-1.5,4.1-2.5l1.3,2.8l7.6,0l0-46.9L250.1,0.7z
		 M247.7,38.4c-1.6,1.4-3.6,2.2-5.9,2.2c-1.2,0-2.2-0.2-3.2-0.7c-1-0.5-1.9-1.1-2.6-1.9c-0.8-0.8-1.3-1.7-1.8-2.8
		c-0.4-1.1-0.6-2.2-0.6-3.5c0-1.2,0.2-2.3,0.6-3.4c0.4-1.1,1-2,1.8-2.8c0.7-0.8,1.6-1.4,2.6-1.9c1-0.5,2.1-0.7,3.2-0.7
		c1.2,0,2.2,0.2,3.2,0.5c1,0.3,1.9,0.8,2.7,1.5c0.8,0.7,1.4,1.6,1.8,2.8c0.4,1.1,0.6,2.5,0.6,4.2C250.1,34.7,249.3,36.9,247.7,38.4z
		"/>
	<path class="st0" d="M288,0.7l0,17.2c-1.2-1.1-2.6-1.9-4.1-2.4c-1.6-0.5-3.4-0.7-5.4-0.7c-2.3,0-4.4,0.4-6.3,1.3
		c-1.9,0.9-3.6,2.1-5,3.6c-1.4,1.5-2.5,3.3-3.3,5.3c-0.8,2-1.2,4.2-1.2,6.5c0,2.3,0.4,4.5,1.2,6.5s1.9,3.8,3.3,5.3
		c1.4,1.5,3.1,2.7,5,3.6c1.9,0.9,4,1.3,6.3,1.3c1.9,0,3.7-0.3,5.4-1c1.7-0.7,3.1-1.5,4.1-2.5l1.3,2.8l7.6,0l0-46.9L288,0.7z
		 M285.6,38.4c-1.6,1.4-3.6,2.2-5.9,2.2c-1.2,0-2.2-0.2-3.2-0.7c-1-0.5-1.9-1.1-2.6-1.9c-0.8-0.8-1.3-1.7-1.8-2.8
		c-0.4-1.1-0.6-2.2-0.6-3.5c0-1.2,0.2-2.3,0.6-3.4c0.4-1.1,1-2,1.8-2.8c0.7-0.8,1.6-1.4,2.6-1.9c1-0.5,2.1-0.7,3.2-0.7
		c1.2,0,2.2,0.2,3.2,0.5c1,0.3,1.9,0.8,2.7,1.5s1.4,1.6,1.8,2.8c0.4,1.1,0.6,2.5,0.6,4.2C288,34.7,287.2,36.9,285.6,38.4z"/>
	<path class="st0" d="M307.9,10.6c1.4,0,2.5-0.5,3.5-1.4c0.9-0.9,1.4-2.1,1.4-3.5c0-1.4-0.5-2.5-1.4-3.5c-0.9-1-2.1-1.4-3.5-1.4
		s-2.5,0.5-3.5,1.4c-0.9,1-1.4,2.1-1.4,3.5c0,1.4,0.5,2.5,1.4,3.5C305.4,10.1,306.5,10.6,307.9,10.6z"/>
	<path class="st0" d="M346,15.8L346,15.8l-15.3,0l0-15l-8.9,0l0,15l-13.1,0v0l-5.2,0l0,31.9l8.9,0l0-24l4.9,0v0l4.6,0l0,14.4
		c0,2.1,0.3,3.8,0.9,5.2c0.6,1.4,1.4,2.5,2.3,3.3c1,0.8,2.1,1.4,3.3,1.8c1.2,0.3,2.5,0.5,3.9,0.5c1.2,0,2.4-0.1,3.6-0.4
		c1.2-0.2,2.3-0.5,3.4-0.9l0-7.4c-1.2,0.5-2.4,0.7-3.6,0.7c-1.5,0-2.7-0.4-3.6-1.2c-0.9-0.8-1.4-2-1.4-3.5l0-12.6l8.6,0v0l5,0l0,24
		l8.9,0l0-31.9L346,15.8z"/>
	<path class="st0" d="M348.8,0.7c-1.4,0-2.5,0.5-3.5,1.4c-0.9,1-1.4,2.1-1.4,3.5c0,1.4,0.5,2.5,1.4,3.5c0.9,0.9,2.1,1.4,3.5,1.4
		s2.5-0.5,3.5-1.4c0.9-0.9,1.4-2.1,1.4-3.5c0-1.4-0.5-2.5-1.4-3.5S350.2,0.7,348.8,0.7z"/>
	<path class="st0" d="M387.2,19.8c-1.5-1.5-3.3-2.7-5.3-3.6c-2-0.9-4.2-1.3-6.4-1.3c-2.3,0-4.5,0.4-6.5,1.3c-2,0.9-3.8,2.1-5.3,3.6
		c-1.5,1.5-2.7,3.3-3.6,5.3c-0.9,2-1.3,4.2-1.3,6.5c0,2.3,0.4,4.5,1.3,6.5c0.9,2,2.1,3.8,3.6,5.3c1.5,1.5,3.3,2.7,5.3,3.6
		c2,0.9,4.2,1.3,6.5,1.3c2.3,0,4.4-0.4,6.4-1.3c2-0.9,3.8-2.1,5.3-3.6c1.5-1.5,2.7-3.3,3.6-5.3c0.9-2,1.3-4.2,1.3-6.5
		c0-2.3-0.4-4.5-1.3-6.5C389.9,23.1,388.7,21.3,387.2,19.8z M382.6,35.5c-0.4,1-1,2-1.7,2.7c-0.7,0.8-1.5,1.3-2.4,1.8
		s-1.9,0.6-3,0.6c-1.1,0-2.1-0.2-3-0.6c-0.9-0.4-1.8-1-2.5-1.8c-0.7-0.7-1.3-1.6-1.7-2.7c-0.4-1-0.6-2.2-0.6-3.5
		c0-1.3,0.2-2.5,0.6-3.6c0.4-1.1,1-2.1,1.7-2.9c0.7-0.8,1.5-1.5,2.5-2c0.9-0.5,1.9-0.7,3-0.7c1.1,0,2.1,0.2,3,0.7
		c0.9,0.5,1.7,1.2,2.4,2c0.7,0.8,1.3,1.8,1.7,2.9c0.4,1.1,0.6,2.3,0.6,3.6C383.2,33.3,383,34.5,382.6,35.5z"/>
	<path class="st0" d="M424.6,22.1c-0.9-1.7-2-3-3.2-3.9c-1.3-0.9-2.6-1.6-4.1-1.9c-1.5-0.3-2.8-0.5-4-0.5c-1.5,0-2.9,0.2-4.2,0.7
		c-1.3,0.5-2.4,1-3.5,1.8l-1.3-2.4l-7.6,0l0,31.9l8.9,0l0-18.7c0-0.9,0.2-1.7,0.6-2.4c0.4-0.7,0.9-1.2,1.4-1.7
		c0.6-0.4,1.2-0.7,1.9-0.9c0.7-0.2,1.3-0.3,1.8-0.3c0.7,0,1.4,0.1,2.1,0.3c0.7,0.2,1.3,0.5,1.8,0.9c0.5,0.4,1,1,1.3,1.6
		c0.3,0.7,0.5,1.5,0.5,2.5l0,18.7l8.9,0l0-19C425.9,26,425.5,23.8,424.6,22.1z"/>
	<path class="st0" d="M442.7,39.9c-0.9-1-2.1-1.4-3.5-1.4c-1.4,0-2.5,0.5-3.5,1.4c-0.9,1-1.4,2.1-1.4,3.5c0,1.4,0.5,2.5,1.4,3.5
		c0.9,0.9,2.1,1.4,3.5,1.4c1.4,0,2.5-0.5,3.5-1.4c0.9-0.9,1.4-2.1,1.4-3.5C444.1,42,443.6,40.8,442.7,39.9z"/>
</g>
</svg>
