<?xml version="1.0" encoding="utf-8"?>
<!-- Generator: Adobe Illustrator 24.1.1, SVG Export Plug-In . SVG Version: 6.00 Build 0)  -->
<svg version="1.1" id="Layer_1" xmlns="http://www.w3.org/2000/svg" xmlns:xlink="http://www.w3.org/1999/xlink" x="0px" y="0px"
	 viewBox="0 0 425.2 198.4" style="enable-background:new 0 0 425.2 198.4;" xml:space="preserve">
<style type="text/css">
	.st0{fill:#0068B5;}
	.st1{fill:#FFFFFF;}
	.st2{fill:#20C4F4;}
</style>
<rect class="st0" width="425.2" height="198.4"/>
<path class="st1" d="M250.7,103.5c-6.7-0.4-9-2.4-9-6.4c0-3.8,3.2-6.7,8.7-6.7c3.5,0,6.4,1.1,8.6,2.8l-1.9,3.8
	c-2.2-1.7-4.4-2.5-6.8-2.5c-2.6,0-4,1-4,2.3s0.8,2.1,4.3,2.3c6.9,0.4,9.1,2.5,9.1,6.5s-3.5,6.9-9.1,6.9c-3.7,0-7.2-1.2-9.6-3.1
	l2.1-3.8c2.3,1.7,5,2.8,7.6,2.8c2.9,0,4.4-1,4.4-2.5S254.1,103.6,250.7,103.5L250.7,103.5z M272.4,95.2h-2.8v-4.3h2.8V85h5.1v5.9
	h4.6v4.3h-4.6v9.5c0,2.1,1,2.7,2.5,2.7h2.2v4.3h-3c-4,0-6.7-1.6-6.7-6.6L272.4,95.2z M292.5,101.4c0-6.3,4.7-11.1,11.2-11.1
	c6.4,0,11.1,4.8,11.1,11s-4.7,11.1-11.2,11.1S292.5,107.6,292.5,101.4z M309.7,101.3c0-3.8-2.6-6.7-6-6.7c-3.5,0-6,2.9-6,6.8
	c0,3.8,2.6,6.7,6.1,6.7C307.2,108.1,309.7,105.2,309.7,101.3z M331.4,93.2c1.4-1.6,3.3-2.4,5.9-2.4h1.7v5.1h-2.3
	c-3.8,0-5.3,2.3-5.3,6v9.8h-5.1V90.9h5.1L331.4,93.2L331.4,93.2z M366.2,105.5l2.7,2.9c-2.3,2.5-5.4,4-9.3,4
	c-6.5,0-11.1-4.4-11.1-11.1c0-6.2,4.7-11.1,10.8-11.1c6.5,0,10.6,4.5,10.6,10.9c0,0.8-0.1,1.3-0.2,1.9h-16.1
	c0.7,3.4,3.3,5.2,6.4,5.2C362.2,108.3,364.3,107.4,366.2,105.5z M353.8,99.5H365c-0.5-3.3-2.7-5.2-5.5-5.2
	C356.9,94.3,354.4,96.1,353.8,99.5z"/>
<g>
	<path class="st2" d="M33.4,66.2h12.5v12.5H33.4V66.2z"/>
	<path class="st1" d="M45.6,131.4v-45H33.7v45.1C33.7,131.4,45.6,131.4,45.6,131.4z M124.3,131.9v-11.1c-1.8,0-3.2-0.1-4.3-0.3
		c-1.2-0.2-2.2-0.6-2.8-1.2s-1-1.5-1.2-2.7c-0.2-1.1-0.3-2.6-0.3-4.3V96.5h8.6V86.4h-8.6V68.8h-11.8v43.6c0,3.7,0.3,6.8,0.9,9.3
		s1.7,4.5,3.2,6c1.5,1.5,3.4,2.6,5.8,3.3s5.4,1,9.1,1L124.3,131.9z M192.3,131.4V65.3h-11.9v66.1H192.3z M92.4,90.8
		c-3.3-3.5-7.9-5.4-13.8-5.4c-2.8,0-5.4,0.6-7.8,1.7c-2.3,1.2-4.3,2.8-5.9,4.8l-0.7,0.8v-6.5H52.5v45.1h11.8v-24v0.9
		c0.1-4.2,1.2-7.3,3.1-9.3c2.1-2.1,4.6-3.2,7.5-3.2c3.4,0,6,1,7.8,3.1c1.7,2,2.6,4.9,2.6,8.6v23.9h12v-25.5
		C97.4,99.4,95.7,94.4,92.4,90.8z M174.3,108.8c0-3.2-0.6-6.3-1.7-9.1s-2.8-5.3-4.8-7.4s-4.5-3.8-7.3-5s-6-1.8-9.4-1.8
		c-3.2,0-6.3,0.6-9.1,1.8c-2.8,1.2-5.4,2.9-7.4,5c-2.1,2.1-3.8,4.6-5,7.4s-1.9,5.9-1.9,9.1s0.6,6.3,1.8,9.2c1.2,2.8,2.8,5.3,4.9,7.4
		c2.1,2.1,4.6,3.8,7.5,5s6.2,1.8,9.7,1.8c10,0,16.3-4.6,20.1-8.8l-8.5-6.5c-1.8,2.1-6.1,5-11.4,5c-3.4,0-6.1-0.8-8.2-2.3
		c-2.1-1.5-3.5-3.6-4.3-6.3l-0.1-0.4h35.4L174.3,108.8L174.3,108.8z M139,104.7c0-3.3,3.8-9.1,11.9-9.1c8.2,0,12,5.8,12,9L139,104.7
		z M205.1,68c-0.2-0.5-0.6-1-0.9-1.4c-0.4-0.4-0.9-0.7-1.4-0.9s-1.1-0.4-1.7-0.4s-1.2,0.1-1.7,0.4c-0.5,0.2-1,0.6-1.4,0.9
		c-0.4,0.4-0.7,0.9-0.9,1.4s-0.4,1.1-0.4,1.7s0.1,1.2,0.4,1.7c0.2,0.5,0.6,1,0.9,1.4c0.4,0.4,0.9,0.7,1.4,1c0.5,0.2,1.1,0.4,1.7,0.4
		s1.2-0.1,1.7-0.4c0.5-0.2,1-0.5,1.4-1c0.4-0.4,0.7-0.9,0.9-1.4s0.4-1.1,0.4-1.7S205.3,68.5,205.1,68z M204.4,71.1
		c-0.2,0.4-0.4,0.8-0.8,1.1c-0.3,0.3-0.7,0.6-1.1,0.8c-0.4,0.2-0.9,0.3-1.4,0.3s-1-0.1-1.4-0.3c-0.4-0.2-0.8-0.5-1.1-0.8
		s-0.6-0.7-0.8-1.1s-0.3-0.9-0.3-1.4s0.1-1,0.3-1.4s0.4-0.8,0.8-1.1c0.3-0.3,0.7-0.6,1.1-0.8c0.4-0.2,0.9-0.3,1.4-0.3s1,0.1,1.4,0.3
		c0.4,0.2,0.8,0.4,1.1,0.8c0.3,0.3,0.6,0.7,0.8,1.1s0.3,0.9,0.3,1.4S204.6,70.7,204.4,71.1z M201.9,70.1c0.3,0,0.6-0.2,0.9-0.4
		c0.2-0.2,0.3-0.6,0.3-1c0-0.5-0.1-0.9-0.4-1.1c-0.3-0.2-0.7-0.4-1.3-0.4h-1.9v5h0.9v-2.1h0.7l1.3,2.1h1L201.9,70.1z M201.4,69.3
		h-1.1v-1.4h1.1c0.1,0,0.3,0,0.4,0.1c0.1,0.1,0.2,0.1,0.3,0.2s0.1,0.2,0.1,0.4s0,0.3-0.1,0.4s-0.2,0.2-0.3,0.2
		C201.7,69.3,201.5,69.3,201.4,69.3z"/>
</g>
<path class="st1" d="M219.5,65.5v66.4h171.9V65.5H219.5z M224.5,126.8V70.5h149.3v12.7h12.6v43.6H224.5z"/>
</svg>
