<?xml version="1.0" encoding="utf-8"?>
<!-- Generator: Adobe Illustrator 24.0.3, SVG Export Plug-In . SVG Version: 6.00 Build 0)  -->
<svg version="1.1" id="Layer_1" xmlns="http://www.w3.org/2000/svg" xmlns:xlink="http://www.w3.org/1999/xlink" x="0px" y="0px"
	 viewBox="0 0 36.85 36.85" style="enable-background:new 0 0 36.85 36.85;" xml:space="preserve">
<style type="text/css">
	.st0{fill:#333333;}
</style>
<path class="st0" d="M18.42,15.57c-4.29,0-7.78-3.49-7.78-7.78S14.13,0,18.42,0c4.29,0,7.78,3.49,7.78,7.78S22.72,15.57,18.42,15.57
	z M18.42,2.03c-3.17,0-5.75,2.58-5.75,5.75s2.58,5.75,5.75,5.75s5.75-2.58,5.75-5.75S21.6,2.03,18.42,2.03z"/>
<path class="st0" d="M32,36.85H4.85V26.13c0-5.33,4.34-9.67,9.67-9.67h7.82c5.33,0,9.67,4.34,9.67,9.67V36.85z M6.88,34.82h23.09
	v-8.69c0-4.21-3.42-7.63-7.63-7.63h-7.82c-4.21,0-7.63,3.42-7.63,7.63V34.82z"/>
<g>
</g>
<g>
</g>
<g>
</g>
<g>
</g>
<g>
</g>
<g>
</g>
</svg>
