<?xml version="1.0" encoding="utf-8"?>
<!-- Generator: Adobe Illustrator 24.1.1, SVG Export Plug-In . SVG Version: 6.00 Build 0)  -->
<svg version="1.1" id="Layer_1" xmlns="http://www.w3.org/2000/svg" xmlns:xlink="http://www.w3.org/1999/xlink" x="0px" y="0px"
	 viewBox="0 0 224 44" style="enable-background:new 0 0 224 44;" xml:space="preserve">
<style type="text/css">
	.st0{fill:#FFFFFF;}
	.st1{opacity:0.1;}
	.st2{clip-path:url(#SVGID_2_);}
	.st3{clip-path:url(#SVGID_4_);fill:#FFFFFF;}
	.st4{filter:url(#Adobe_OpacityMaskFilter);}
	.st5{clip-path:url(#SVGID_6_);}
	.st6{clip-path:url(#SVGID_9_);fill:url(#SVGID_10_);}
	.st7{clip-path:url(#SVGID_6_);mask:url(#SVGID_7_);fill:url(#SVGID_11_);}
	.st8{filter:url(#Adobe_OpacityMaskFilter_1_);}
	.st9{clip-path:url(#SVGID_13_);}
	.st10{clip-path:url(#SVGID_16_);fill:url(#SVGID_17_);}
	.st11{clip-path:url(#SVGID_13_);mask:url(#SVGID_14_);fill:url(#SVGID_18_);}
	.st12{filter:url(#Adobe_OpacityMaskFilter_2_);}
	.st13{clip-path:url(#SVGID_20_);}
	.st14{clip-path:url(#SVGID_23_);fill:url(#SVGID_24_);}
	.st15{clip-path:url(#SVGID_20_);mask:url(#SVGID_21_);fill:url(#SVGID_25_);}
	.st16{fill:#E40521;}
	.st17{fill:#D20A18;}
</style>
<g>
	<path class="st0" d="M125.9,16v5.1h-6.2v13.2c0,2.4,1.1,2.8,3.2,2.8c1.2,0,2.1-0.2,2.5-0.4l0.5-0.1v5.1l-0.3,0.1
		c-1.7,0.4-3.2,0.6-5.3,0.6c-1.5,0-6.3-0.5-6.3-6.8V21.1h-3.6v-0.3c0-0.2,0-2,0-3.6V16h3.6V9.5l5.7-2V16H125.9z M164.3,7.7
		l-6.8,34.1h-5.8l-6.1-23.8l-6.2,23.8h-5.7l-7.2-34.1h6l4.6,23.2l5.8-23.2h5.6c0.6,2.2,5.8,22.9,5.8,23.1c0-0.3,4.1-22.4,4.3-23.1
		H164.3z M170.2,26.3c0.1-2.4,1.9-5.6,5.5-5.6c3.9,0,5.2,3.5,5.3,5.6H170.2z M176,15.6c-4.4,0-11.7,2.8-11.7,13.5
		c0,12.7,10.1,13.3,12.1,13.3c4.3,0,6.2-0.9,8.1-1.8l0.2-0.1v-5.4l-0.5,0.3c-1.4,0.9-4,1.8-7,1.8c-6,0-6.9-4.3-6.9-6.1h16.5l0-0.3
		c0.5-3.6,0-8.5-2.9-11.9C181.9,16.7,179.2,15.6,176,15.6 M207.9,34.7c0,3.9-3.4,7.8-9.8,7.8c-2.8,0-5.9-0.7-8.2-1.8l-0.2-0.1V35
		l0.5,0.3c1.9,1,4.8,2.1,7.7,2.1c2.6,0,4.1-0.9,4.1-2.6c0-1.5-0.9-2-3.2-3l-0.9-0.4c-1.1-0.5-2-0.9-3.6-1.6c-1.5-0.7-5-2.3-5-7
		c0-2.5,1.9-7.3,9.3-7.3c3,0,6,0.8,7.2,1.4l0.2,0.1v5.4l-0.5-0.2c-2.3-1.2-4.4-1.7-6.6-1.7c-0.8,0-3.6,0.2-3.6,2.1
		c0,1.5,1.7,2.2,3.1,2.9l0.3,0.1c1,0.4,1.8,0.8,2.5,1.1l0.7,0.3C206.2,29,207.9,31,207.9,34.7 M78.7,7.7h5.6v34.1h-5.4L63.9,18.1
		v23.8h-5.6V7.7h5.6l14.8,24V7.7z M217.8,21.1v13.2c0,2.4,1.1,2.8,3.2,2.8c1.2,0,2.1-0.2,2.5-0.4l0.5-0.2v5.1l-0.3,0.1
		c-1.7,0.4-3.2,0.6-5.3,0.6c-1.5,0-6.3-0.5-6.3-6.8V21.1h-3.7v-0.3c0-0.2,0-2,0-3.6V16h3.7V9.5l5.7-2V16h6.2v5.1H217.8z M103,34.3
		c-0.7,0.8-2.7,2.9-5.9,2.9c-2.5,0-4-1.4-4-3.6c0-2.2,1.8-3.5,4.9-3.5h5V34.3z M98.6,15.5c-2.9,0-5.7,0.5-7.7,1.4l-0.2,0.1v5.3
		l0.5-0.3c1.3-0.7,4.6-1.2,6.6-1.2c5,0,5.2,1.9,5.3,4.4h-5.4c-7.1,0-10.3,4.5-10.3,8.6c0,5.8,4.6,8.7,9.1,8.7c3.1,0,5-1.2,6.6-2.6v2
		h5.7V24.4C108.7,16.4,101.6,15.5,98.6,15.5"/>
	<g class="st1">
		<g>
			<defs>
				<rect id="SVGID_1_" y="1.5" width="46.6" height="40.3"/>
			</defs>
			<clipPath id="SVGID_2_">
				<use xlink:href="#SVGID_1_"  style="overflow:visible;"/>
			</clipPath>
			<g class="st2">
				<defs>
					<rect id="SVGID_3_" y="1.5" width="46.6" height="40.3"/>
				</defs>
				<clipPath id="SVGID_4_">
					<use xlink:href="#SVGID_3_"  style="overflow:visible;"/>
				</clipPath>
				<polygon class="st3" points="20,41.9 23.3,36.1 26.6,41.9 39.9,41.9 39.9,41.9 46.6,30.3 39.9,18.8 33.3,18.8 36.6,13.1 
					29.9,1.5 29.9,1.5 16.6,1.5 10,13.1 13.3,18.8 6.7,18.8 0,30.3 0,30.3 6.7,41.9 20,41.9 				"/>
			</g>
		</g>
	</g>
</g>
<g>
	<defs>
		<polygon id="SVGID_5_" points="33.3,18.8 29.9,24.6 23.3,24.6 20,30.3 33.3,30.3 39.9,18.8 		"/>
	</defs>
	<clipPath id="SVGID_6_">
		<use xlink:href="#SVGID_5_"  style="overflow:visible;"/>
	</clipPath>
	<defs>
		<filter id="Adobe_OpacityMaskFilter" filterUnits="userSpaceOnUse" x="15" y="10.2" width="29.9" height="28.8">
			<feColorMatrix  type="matrix" values="1 0 0 0 0  0 1 0 0 0  0 0 1 0 0  0 0 0 1 0"/>
		</filter>
	</defs>
	<mask maskUnits="userSpaceOnUse" x="15" y="10.2" width="29.9" height="28.8" id="SVGID_7_">
		<g class="st4">
			<g>
				<defs>
					<rect id="SVGID_8_" x="20" y="13.1" transform="matrix(0.5 -0.866 0.866 0.5 -6.3187 38.2155)" width="19.9" height="23"/>
				</defs>
				<clipPath id="SVGID_9_" class="st5">
					<use xlink:href="#SVGID_8_"  style="overflow:visible;"/>
				</clipPath>
				
					<linearGradient id="SVGID_10_" gradientUnits="userSpaceOnUse" x1="-212.8839" y1="3296.8918" x2="-211.6379" y2="3296.8918" gradientTransform="matrix(8.0104 4.6248 4.6248 -8.0104 -13517.2754 27415.6992)">
					<stop  offset="0" style="stop-color:#1A1A1A"/>
					<stop  offset="0.1413" style="stop-color:#222222"/>
					<stop  offset="0.3718" style="stop-color:#3B3B3B"/>
					<stop  offset="0.6628" style="stop-color:#626262"/>
					<stop  offset="1" style="stop-color:#999999"/>
				</linearGradient>
				<polygon class="st6" points="22.5,-2.8 57.4,17.4 37.4,51.9 2.5,31.8 				"/>
			</g>
		</g>
	</mask>
	
		<linearGradient id="SVGID_11_" gradientUnits="userSpaceOnUse" x1="-212.8839" y1="3296.8918" x2="-211.6379" y2="3296.8918" gradientTransform="matrix(8.0104 4.6248 4.6248 -8.0104 -13517.2754 27415.6992)">
		<stop  offset="0" style="stop-color:#E40521"/>
		<stop  offset="1" style="stop-color:#E40521"/>
	</linearGradient>
	<polygon class="st7" points="24.9,10.2 44.9,21.7 34.9,39 15,27.5 	"/>
</g>
<g>
	<defs>
		<polygon id="SVGID_12_" points="10,13.1 10,13.1 13.3,18.8 20,18.8 23.3,24.6 29.9,24.6 29.9,24.6 23.3,13.1 		"/>
	</defs>
	<clipPath id="SVGID_13_">
		<use xlink:href="#SVGID_12_"  style="overflow:visible;"/>
	</clipPath>
	<defs>
		<filter id="Adobe_OpacityMaskFilter_1_" filterUnits="userSpaceOnUse" x="4.3" y="3.2" width="31.3" height="31.2">
			<feColorMatrix  type="matrix" values="1 0 0 0 0  0 1 0 0 0  0 0 1 0 0  0 0 0 1 0"/>
		</filter>
	</defs>
	<mask maskUnits="userSpaceOnUse" x="4.3" y="3.2" width="31.3" height="31.2" id="SVGID_14_">
		<g class="st8">
			<g>
				<defs>
					
						<rect id="SVGID_15_" x="9.1" y="7.5" transform="matrix(0.6428 -0.7661 0.7661 0.6428 -7.2818 22.0105)" width="21.6" height="22.7"/>
				</defs>
				<clipPath id="SVGID_16_" class="st9">
					<use xlink:href="#SVGID_15_"  style="overflow:visible;"/>
				</clipPath>
				
					<linearGradient id="SVGID_17_" gradientUnits="userSpaceOnUse" x1="-232.1433" y1="3261.0977" x2="-230.8973" y2="3261.0977" gradientTransform="matrix(-5.583 6.6538 6.6538 5.583 -22970.5449 -16648.4336)">
					<stop  offset="0" style="stop-color:#1A1A1A"/>
					<stop  offset="0.1413" style="stop-color:#222222"/>
					<stop  offset="0.3718" style="stop-color:#3B3B3B"/>
					<stop  offset="0.6628" style="stop-color:#626262"/>
					<stop  offset="1" style="stop-color:#999999"/>
				</linearGradient>
				<polygon class="st10" points="51,16.1 22.7,49.8 -11,21.5 17.2,-12.2 				"/>
			</g>
		</g>
	</mask>
	
		<linearGradient id="SVGID_18_" gradientUnits="userSpaceOnUse" x1="-232.1433" y1="3261.0979" x2="-230.8973" y2="3261.0979" gradientTransform="matrix(-5.583 6.6538 6.6538 5.583 -22970.5469 -16648.4336)">
		<stop  offset="0" style="stop-color:#E40521"/>
		<stop  offset="1" style="stop-color:#E40521"/>
	</linearGradient>
	<polygon class="st11" points="35.6,17.8 21.7,34.4 4.3,19.8 18.2,3.2 	"/>
</g>
<g>
	<defs>
		<polygon id="SVGID_19_" points="13.3,30.3 20,41.9 23.3,36.1 20,30.3 23.3,24.6 20,18.8 		"/>
	</defs>
	<clipPath id="SVGID_20_">
		<use xlink:href="#SVGID_19_"  style="overflow:visible;"/>
	</clipPath>
	<defs>
		<filter id="Adobe_OpacityMaskFilter_2_" filterUnits="userSpaceOnUse" x="2" y="13.9" width="32.7" height="32.9">
			<feColorMatrix  type="matrix" values="1 0 0 0 0  0 1 0 0 0  0 0 1 0 0  0 0 0 1 0"/>
		</filter>
	</defs>
	<mask maskUnits="userSpaceOnUse" x="2" y="13.9" width="32.7" height="32.9" id="SVGID_21_">
		<g class="st12">
			<g>
				<defs>
					
						<rect id="SVGID_22_" x="6.3" y="19.1" transform="matrix(0.6428 -0.766 0.766 0.6428 -16.7079 24.852)" width="24.1" height="22.5"/>
				</defs>
				<clipPath id="SVGID_23_" class="st13">
					<use xlink:href="#SVGID_22_"  style="overflow:visible;"/>
				</clipPath>
				
					<linearGradient id="SVGID_24_" gradientUnits="userSpaceOnUse" x1="-214.9669" y1="3290.0273" x2="-213.7209" y2="3290.0273" gradientTransform="matrix(9.1056 7.6407 7.6407 -9.1056 -23167.0879 31626.5254)">
					<stop  offset="0" style="stop-color:#1A1A1A"/>
					<stop  offset="0.1413" style="stop-color:#222222"/>
					<stop  offset="0.3718" style="stop-color:#3B3B3B"/>
					<stop  offset="0.6628" style="stop-color:#626262"/>
					<stop  offset="1" style="stop-color:#999999"/>
				</linearGradient>
				<polygon class="st14" points="15.5,-2.2 50.8,27.5 21.1,62.9 -14.2,33.2 				"/>
			</g>
		</g>
	</mask>
	
		<linearGradient id="SVGID_25_" gradientUnits="userSpaceOnUse" x1="-214.9669" y1="3290.0273" x2="-213.7209" y2="3290.0273" gradientTransform="matrix(9.1056 7.6407 7.6407 -9.1056 -23167.0898 31626.5273)">
		<stop  offset="0" style="stop-color:#E40521"/>
		<stop  offset="1" style="stop-color:#E40521"/>
	</linearGradient>
	<polygon class="st15" points="17.4,13.9 34.6,28.3 19.2,46.8 2,32.3 	"/>
</g>
<polygon class="st16" points="46.6,30.3 39.9,18.8 33.3,30.3 20,30.3 26.6,41.9 39.9,41.9 39.9,41.9 "/>
<polygon class="st16" points="6.7,18.8 0,30.3 0,30.3 6.7,41.9 20,41.9 20,41.9 13.3,30.3 20,18.8 "/>
<polygon class="st16" points="36.6,13.1 29.9,1.5 16.6,1.5 10,13.1 23.3,13.1 29.9,24.6 "/>
<polygon class="st17" points="39.9,18.8 46.6,30.3 39.9,41.9 33.3,30.3 "/>
<polygon class="st17" points="0,30.3 0,30.3 6.7,41.9 19.9,41.9 20,41.9 13.3,30.3 "/>
<polygon class="st17" points="23.3,13.1 29.9,24.6 36.6,13.1 29.9,1.5 "/>
</svg>
