<?xml version="1.0" encoding="utf-8"?>
<!-- Generator: Adobe Illustrator 24.1.1, SVG Export Plug-In . SVG Version: 6.00 Build 0)  -->
<svg version="1.1" id="Layer_1" xmlns="http://www.w3.org/2000/svg" xmlns:xlink="http://www.w3.org/1999/xlink" x="0px" y="0px"
	 viewBox="0 0 38.9 10.5" style="enable-background:new 0 0 38.9 10.5;" xml:space="preserve">
<style type="text/css">
	.st0{fill:#FFFFFF;}
</style>
<path class="st0" d="M4.5,3.4C3.6,3.7,3.3,4.6,3.3,4.6C3.2,4.9,2.9,5.1,2.5,5.1H0.8C0.4,5.1,0,4.7,0,4.3c0-0.5,0.3-0.8,0.8-0.8
	l1.3,0L0.2,1.5c-0.3-0.3-0.3-0.9,0-1.2C0.6,0,1.1,0,1.4,0.4l1.9,1.9V1c0-0.5,0.4-0.8,0.8-0.8C4.6,0.1,5,0.5,5,1v1.7
	C5,3,4.8,3.3,4.5,3.4z M4.2,10.5c-0.5,0-0.8-0.3-0.8-0.8l0-1.3l-1.9,1.9c-0.3,0.3-0.9,0.3-1.2,0c-0.3-0.3-0.3-0.9,0-1.2l1.9-1.9H0.9
	C0.4,7.1,0,6.8,0,6.3c0-0.5,0.4-0.8,0.8-0.8h1.7c0.4,0,0.7,0.2,0.8,0.5c0.3,0.9,1.2,1.2,1.2,1.2C4.8,7.3,5,7.6,5,8v1.7
	C5,10.1,4.6,10.5,4.2,10.5z M9.5,7.1l-1.3,0L10.1,9c0.3,0.3,0.3,0.9,0,1.2c-0.3,0.3-0.9,0.3-1.2,0L7,8.3v1.3c0,0.5-0.4,0.8-0.8,0.8
	c-0.5,0-0.8-0.4-0.8-0.8V8c0-0.4,0.2-0.7,0.5-0.8C6.8,6.9,7.1,6,7.1,6c0.1-0.3,0.4-0.5,0.8-0.5h1.7c0.5,0,0.8,0.4,0.8,0.8
	C10.4,6.8,10,7.1,9.5,7.1z M9.6,5.1H7.9c-0.4,0-0.7-0.2-0.8-0.5C6.8,3.7,5.9,3.4,5.9,3.4C5.6,3.3,5.4,3,5.4,2.6V0.9
	c0-0.5,0.4-0.8,0.8-0.8C6.7,0.1,7,0.5,7,0.9l0,1.3L9,0.4C9.3,0,9.8,0,10.1,0.4c0.3,0.3,0.3,0.9,0,1.2L8.3,3.4h1.3
	c0.5,0,0.8,0.4,0.8,0.8C10.4,4.7,10,5.1,9.6,5.1z"/>
<path class="st0" d="M13.5,2.5L13.5,2.5l1.1,1.7h0.9l-0.9-1.4c-0.1-0.1-0.2-0.3-0.3-0.4c0.5-0.1,1-0.5,1-1.1c0-0.8-0.6-1.2-1.4-1.2
	c-0.5,0-0.8,0-1.1,0v4.1h0.8V2.5z M13.5,0.7c0.1,0,0.2,0,0.3,0c0.5,0,0.7,0.3,0.7,0.6c0,0.4-0.3,0.6-0.7,0.6c-0.1,0-0.2,0-0.3,0V0.7
	z"/>
<path class="st0" d="M17.1,1.3c-0.9,0-1.5,0.6-1.5,1.5c0,1,0.5,1.4,1.3,1.4c0.9,0,1.5-0.6,1.5-1.5C18.4,1.7,17.9,1.3,17.1,1.3z
	 M17,3.6c-0.4,0-0.6-0.3-0.6-0.9c0-0.6,0.3-0.8,0.7-0.8c0.4,0,0.6,0.3,0.6,0.9C17.7,3.3,17.4,3.6,17,3.6z"/>
<path class="st0" d="M20.3,4.4l1.1-3h-0.8l-0.3,1C20.2,2.6,20.1,3,20,3.2h0C20,3,19.9,2.7,19.8,2.4l-0.4-1.1h-0.8l1.1,2.9l-0.1,0.3
	C19.4,4.9,19.2,5,18.9,5c-0.1,0-0.3,0-0.4-0.1l-0.1,0.6c0.1,0,0.3,0,0.4,0C19.5,5.7,19.9,5.4,20.3,4.4z"/>
<path class="st0" d="M22.4,4.3c0.4,0,0.7-0.2,0.9-0.5v0.4H24c0-0.2,0-0.5,0-0.7V2.3c0-0.6-0.3-1-1.2-1c-0.4,0-0.8,0.1-1.1,0.2
	L21.9,2c0.3-0.1,0.6-0.2,0.9-0.2c0.4,0,0.5,0.2,0.5,0.5v0.1c-1,0-1.7,0.3-1.7,1C21.6,3.9,21.9,4.3,22.4,4.3z M23.3,2.9L23.3,2.9
	c0,0.4-0.2,0.8-0.6,0.8c-0.2,0-0.3-0.2-0.3-0.3C22.3,3.1,22.5,2.9,23.3,2.9z"/>
<rect x="24.6" y="0" class="st0" width="0.7" height="4.2"/>
<path class="st0" d="M29.8,2.9c0-0.4-0.3-0.8-0.7-0.9v0c0.4-0.1,0.6-0.5,0.6-0.9c0-0.6-0.5-1-1.3-1c-0.5,0-1,0-1.3,0v4
	c0.5,0,0.9,0,1.1,0C29.4,4.2,29.8,3.5,29.8,2.9z M27.9,0.8c0.1,0,0.3,0,0.4,0c0.5,0,0.6,0.2,0.6,0.5c0,0.3-0.2,0.6-0.7,0.6
	c-0.1,0-0.2,0-0.3,0V0.8z M27.9,2.4c0.1,0,0.3,0,0.3,0c0.5,0,0.8,0.2,0.8,0.6c0,0.3-0.2,0.7-0.7,0.7c-0.1,0-0.3,0-0.4,0V2.4z"/>
<path class="st0" d="M30.2,3.5c0,0.5,0.3,0.8,0.8,0.8c0.4,0,0.7-0.2,0.9-0.5v0.4h0.7c0-0.2,0-0.5,0-0.7V2.3c0-0.6-0.3-1-1.2-1
	c-0.4,0-0.8,0.1-1.1,0.2L30.5,2c0.3-0.1,0.6-0.2,0.9-0.2c0.4,0,0.5,0.2,0.5,0.5v0.1C30.9,2.5,30.2,2.8,30.2,3.5z M31.9,3
	c0,0.3-0.2,0.7-0.6,0.7c-0.2,0-0.3-0.2-0.3-0.3C31,3.1,31.2,2.9,31.9,3L31.9,3z"/>
<path class="st0" d="M34,2.8c0-0.5,0.3-0.9,0.7-0.9c0.3,0,0.4,0.2,0.4,0.5v1.8h0.7v-2c0-0.5-0.2-0.9-0.9-0.9c-0.4,0-0.8,0.2-0.9,0.5
	V1.3h-0.7v2.9H34V2.8z"/>
<polygon class="st0" points="37,2.9 37.9,4.2 38.9,4.2 37.7,2.7 38.8,1.3 37.9,1.3 37,2.4 37,0 36.3,0 36.3,4.2 37,4.2 "/>
<path class="st0" d="M14,7.5c-0.9,0-1.5,0.6-1.5,1.5c0,1,0.5,1.4,1.3,1.4c0.9,0,1.5-0.6,1.5-1.5C15.3,7.9,14.8,7.5,14,7.5z
	 M13.9,9.8c-0.4,0-0.6-0.3-0.6-0.9c0-0.6,0.3-0.8,0.7-0.8c0.4,0,0.6,0.3,0.6,0.9C14.6,9.5,14.3,9.8,13.9,9.8z"/>
<path class="st0" d="M16.1,7.3v0.2h-0.5v0.6h0.5v2.3h0.7V8.1h0.7V7.5h-0.7V7.3c0-0.4,0.1-0.5,0.5-0.5c0.1,0,0.2,0,0.4,0.1l0.1-0.6
	c-0.2,0-0.3,0-0.5,0C16.4,6.2,16.1,6.5,16.1,7.3z"/>
<path class="st0" d="M19.5,7.4c0-0.3,0.2-0.5,0.6-0.5c0.2,0,0.5,0,0.7,0.1l0.1-0.7c-0.2,0-0.5-0.1-0.7-0.1c-0.9,0-1.5,0.5-1.5,1.2
	c0,1.3,1.6,1.1,1.6,1.8c0,0.4-0.3,0.5-0.7,0.5c-0.3,0-0.6-0.1-0.8-0.2l-0.1,0.7c0.3,0.1,0.6,0.1,0.9,0.1c0.9,0,1.5-0.5,1.5-1.3
	C21.2,8,19.5,8.1,19.5,7.4z"/>
<path class="st0" d="M23,9.8c-0.5,0-0.7-0.3-0.7-0.8c0-0.5,0.2-0.9,0.7-0.9c0.2,0,0.4,0,0.5,0.1l0.1-0.6c-0.2-0.1-0.4-0.1-0.6-0.1
	c-1,0-1.5,0.7-1.5,1.6c0,1,0.5,1.4,1.3,1.4c0.3,0,0.6,0,0.8-0.1l-0.1-0.6C23.4,9.8,23.2,9.8,23,9.8z"/>
<path class="st0" d="M25.3,7.5c-0.9,0-1.5,0.6-1.5,1.5c0,1,0.5,1.4,1.3,1.4c0.9,0,1.5-0.6,1.5-1.5C26.6,7.9,26.1,7.5,25.3,7.5z
	 M25.2,9.8c-0.4,0-0.6-0.3-0.6-0.9c0-0.6,0.3-0.8,0.7-0.8c0.4,0,0.6,0.3,0.6,0.9C25.8,9.5,25.6,9.8,25.2,9.8z"/>
<path class="st0" d="M28.4,9.8c-0.3,0-0.3-0.1-0.3-0.5V8.1h0.7V7.5h-0.7V6.3l-0.7,0.2v1h-0.5v0.6h0.5v1.5c0,0.7,0.2,0.9,0.8,0.9
	c0.2,0,0.4,0,0.6-0.1l-0.1-0.6C28.6,9.8,28.5,9.8,28.4,9.8z"/>
<rect x="29.3" y="6.2" class="st0" width="0.7" height="4.2"/>
<path class="st0" d="M32.8,8.5c0-0.6-0.3-1-1.2-1c-0.4,0-0.8,0.1-1.1,0.2l0.1,0.6C31,8.1,31.3,8,31.6,8c0.4,0,0.5,0.2,0.5,0.5v0.1
	c-1,0-1.7,0.3-1.7,1c0,0.5,0.3,0.8,0.8,0.8c0.4,0,0.7-0.2,0.9-0.5v0.4h0.7c0-0.2,0-0.5,0-0.7V8.5z M32.1,9.2c0,0.3-0.2,0.7-0.6,0.7
	c-0.2,0-0.3-0.2-0.3-0.3C31.1,9.3,31.3,9.1,32.1,9.2L32.1,9.2z"/>
<path class="st0" d="M35,7.5c-0.4,0-0.8,0.2-0.9,0.5V7.5h-0.7v2.9h0.7V9c0-0.5,0.3-0.9,0.7-0.9c0.3,0,0.4,0.2,0.4,0.5v1.8h0.7v-2
	C35.8,7.9,35.6,7.5,35,7.5z"/>
<path class="st0" d="M38.1,6.2v1.3c-0.1,0-0.2,0-0.4,0c-1,0-1.5,0.7-1.5,1.6c0,0.8,0.3,1.3,1,1.3c0.4,0,0.7-0.2,0.9-0.5v0.4h0.7V6.2
	H38.1z M38.1,8.9c0,0.5-0.2,0.9-0.6,0.9C37.2,9.9,37,9.6,37,9c0-0.7,0.3-1,0.7-1c0.1,0,0.3,0,0.4,0V8.9z"/>
</svg>
